<mxfile host="app.diagrams.net" modified="2021-08-08T10:00:06.940Z" agent="5.0 (Macintosh; Intel Mac OS X 10_13_6) AppleWebKit/537.36 (KHTML, like Gecko) Chrome/81.0.4044.129 Safari/537.36" etag="-dfgOQPovj9SPSUs7797" version="14.9.5" type="github" pages="4">
  <diagram id="sRjPFS_oY10I41s2XJZO" name="Page-2">
    <mxGraphModel dx="1182" dy="644" grid="1" gridSize="10" guides="1" tooltips="1" connect="1" arrows="1" fold="1" page="1" pageScale="1" pageWidth="827" pageHeight="1169" math="0" shadow="0">
      <root>
        <mxCell id="VJO6gOv40d7nDkX1chDL-0" />
        <mxCell id="VJO6gOv40d7nDkX1chDL-1" parent="VJO6gOv40d7nDkX1chDL-0" />
        <mxCell id="VJO6gOv40d7nDkX1chDL-3" value="老版本App" style="swimlane;childLayout=stackLayout;resizeParent=1;resizeParentMax=0;startSize=20;" vertex="1" parent="VJO6gOv40d7nDkX1chDL-1">
          <mxGeometry x="150" y="40" width="360" height="480" as="geometry" />
        </mxCell>
        <mxCell id="VJO6gOv40d7nDkX1chDL-23" value="" style="endArrow=classic;html=1;exitX=0.5;exitY=1;exitDx=0;exitDy=0;" edge="1" parent="VJO6gOv40d7nDkX1chDL-3" source="VJO6gOv40d7nDkX1chDL-17">
          <mxGeometry width="50" height="50" relative="1" as="geometry">
            <mxPoint x="135.5" y="340" as="sourcePoint" />
            <mxPoint x="73" y="360" as="targetPoint" />
            <Array as="points">
              <mxPoint x="309" y="320" />
              <mxPoint x="73" y="320" />
            </Array>
          </mxGeometry>
        </mxCell>
        <mxCell id="VJO6gOv40d7nDkX1chDL-4" value="APP" style="swimlane;startSize=20;" vertex="1" parent="VJO6gOv40d7nDkX1chDL-3">
          <mxGeometry y="20" width="120" height="460" as="geometry" />
        </mxCell>
        <mxCell id="VJO6gOv40d7nDkX1chDL-8" value="发起http请求" style="rounded=0;whiteSpace=wrap;html=1;" vertex="1" parent="VJO6gOv40d7nDkX1chDL-4">
          <mxGeometry x="15" y="50" width="90" height="40" as="geometry" />
        </mxCell>
        <mxCell id="VJO6gOv40d7nDkX1chDL-10" value="WebView渲染" style="rounded=0;whiteSpace=wrap;html=1;" vertex="1" parent="VJO6gOv40d7nDkX1chDL-4">
          <mxGeometry x="15" y="340" width="90" height="40" as="geometry" />
        </mxCell>
        <mxCell id="VJO6gOv40d7nDkX1chDL-9" value="解析页面" style="rounded=0;whiteSpace=wrap;html=1;" vertex="1" parent="VJO6gOv40d7nDkX1chDL-4">
          <mxGeometry x="15" y="130" width="90" height="40" as="geometry" />
        </mxCell>
        <mxCell id="VJO6gOv40d7nDkX1chDL-5" value="H5站点" style="swimlane;startSize=20;" vertex="1" parent="VJO6gOv40d7nDkX1chDL-3">
          <mxGeometry x="120" y="20" width="120" height="460" as="geometry" />
        </mxCell>
        <mxCell id="VJO6gOv40d7nDkX1chDL-12" value="下发html页面" style="rounded=0;whiteSpace=wrap;html=1;" vertex="1" parent="VJO6gOv40d7nDkX1chDL-5">
          <mxGeometry x="15" y="50" width="90" height="40" as="geometry" />
        </mxCell>
        <mxCell id="VJO6gOv40d7nDkX1chDL-22" value="" style="endArrow=classic;html=1;exitX=0.5;exitY=1;exitDx=0;exitDy=0;" edge="1" parent="VJO6gOv40d7nDkX1chDL-5" source="VJO6gOv40d7nDkX1chDL-11">
          <mxGeometry width="50" height="50" relative="1" as="geometry">
            <mxPoint y="280" as="sourcePoint" />
            <mxPoint x="-60" y="340" as="targetPoint" />
            <Array as="points">
              <mxPoint x="189" y="300" />
              <mxPoint x="-60" y="300" />
            </Array>
          </mxGeometry>
        </mxCell>
        <mxCell id="VJO6gOv40d7nDkX1chDL-6" value="Areas静态资源" style="swimlane;startSize=20;" vertex="1" parent="VJO6gOv40d7nDkX1chDL-3">
          <mxGeometry x="240" y="20" width="120" height="460" as="geometry" />
        </mxCell>
        <mxCell id="VJO6gOv40d7nDkX1chDL-11" value="下发静态资源" style="rounded=0;whiteSpace=wrap;html=1;" vertex="1" parent="VJO6gOv40d7nDkX1chDL-6">
          <mxGeometry x="24" y="190" width="90" height="40" as="geometry" />
        </mxCell>
        <mxCell id="VJO6gOv40d7nDkX1chDL-17" value="下发静态资源" style="rounded=0;whiteSpace=wrap;html=1;" vertex="1" parent="VJO6gOv40d7nDkX1chDL-6">
          <mxGeometry x="24" y="140" width="90" height="40" as="geometry" />
        </mxCell>
        <mxCell id="VJO6gOv40d7nDkX1chDL-18" value="下发静态资源" style="rounded=0;whiteSpace=wrap;html=1;" vertex="1" parent="VJO6gOv40d7nDkX1chDL-6">
          <mxGeometry x="24" y="240" width="90" height="40" as="geometry" />
        </mxCell>
        <mxCell id="VJO6gOv40d7nDkX1chDL-14" value="" style="endArrow=classic;html=1;entryX=0;entryY=0.5;entryDx=0;entryDy=0;exitX=1;exitY=0.5;exitDx=0;exitDy=0;" edge="1" parent="VJO6gOv40d7nDkX1chDL-3" source="VJO6gOv40d7nDkX1chDL-8" target="VJO6gOv40d7nDkX1chDL-12">
          <mxGeometry width="50" height="50" relative="1" as="geometry">
            <mxPoint x="110" y="90" as="sourcePoint" />
            <mxPoint x="25" y="100" as="targetPoint" />
          </mxGeometry>
        </mxCell>
        <mxCell id="VJO6gOv40d7nDkX1chDL-15" value="" style="endArrow=classic;html=1;entryX=1;entryY=0.5;entryDx=0;entryDy=0;exitX=0.5;exitY=1;exitDx=0;exitDy=0;" edge="1" parent="VJO6gOv40d7nDkX1chDL-3" source="VJO6gOv40d7nDkX1chDL-12" target="VJO6gOv40d7nDkX1chDL-9">
          <mxGeometry width="50" height="50" relative="1" as="geometry">
            <mxPoint x="-54" y="110" as="sourcePoint" />
            <mxPoint x="35" y="110" as="targetPoint" />
            <Array as="points">
              <mxPoint x="180" y="170" />
            </Array>
          </mxGeometry>
        </mxCell>
        <mxCell id="VJO6gOv40d7nDkX1chDL-16" value="" style="endArrow=classic;html=1;entryX=0;entryY=0.5;entryDx=0;entryDy=0;exitX=0.433;exitY=1;exitDx=0;exitDy=0;exitPerimeter=0;" edge="1" parent="VJO6gOv40d7nDkX1chDL-3" source="VJO6gOv40d7nDkX1chDL-9" target="VJO6gOv40d7nDkX1chDL-11">
          <mxGeometry width="50" height="50" relative="1" as="geometry">
            <mxPoint x="-44" y="120" as="sourcePoint" />
            <mxPoint x="45" y="120" as="targetPoint" />
            <Array as="points">
              <mxPoint x="54" y="230" />
            </Array>
          </mxGeometry>
        </mxCell>
        <mxCell id="VJO6gOv40d7nDkX1chDL-19" value="" style="endArrow=classic;html=1;entryX=0;entryY=0.5;entryDx=0;entryDy=0;" edge="1" parent="VJO6gOv40d7nDkX1chDL-3" target="VJO6gOv40d7nDkX1chDL-17">
          <mxGeometry width="50" height="50" relative="1" as="geometry">
            <mxPoint x="50" y="190" as="sourcePoint" />
            <mxPoint x="220" y="190" as="targetPoint" />
            <Array as="points">
              <mxPoint x="50" y="230" />
              <mxPoint x="170" y="230" />
              <mxPoint x="170" y="180" />
            </Array>
          </mxGeometry>
        </mxCell>
        <mxCell id="VJO6gOv40d7nDkX1chDL-20" value="" style="endArrow=classic;html=1;entryX=0;entryY=0.5;entryDx=0;entryDy=0;exitX=0.5;exitY=1;exitDx=0;exitDy=0;" edge="1" parent="VJO6gOv40d7nDkX1chDL-3" source="VJO6gOv40d7nDkX1chDL-9" target="VJO6gOv40d7nDkX1chDL-18">
          <mxGeometry width="50" height="50" relative="1" as="geometry">
            <mxPoint x="80" y="280" as="sourcePoint" />
            <mxPoint x="169" y="280" as="targetPoint" />
            <Array as="points">
              <mxPoint x="60" y="230" />
              <mxPoint x="170" y="230" />
              <mxPoint x="170" y="280" />
            </Array>
          </mxGeometry>
        </mxCell>
        <mxCell id="VJO6gOv40d7nDkX1chDL-21" value="" style="endArrow=classic;html=1;entryX=0.389;entryY=0;entryDx=0;entryDy=0;exitX=0.5;exitY=1;exitDx=0;exitDy=0;entryPerimeter=0;" edge="1" parent="VJO6gOv40d7nDkX1chDL-3" source="VJO6gOv40d7nDkX1chDL-18" target="VJO6gOv40d7nDkX1chDL-10">
          <mxGeometry width="50" height="50" relative="1" as="geometry">
            <mxPoint x="-44" y="120" as="sourcePoint" />
            <mxPoint x="45" y="120" as="targetPoint" />
            <Array as="points">
              <mxPoint x="309" y="320" />
              <mxPoint x="50" y="320" />
            </Array>
          </mxGeometry>
        </mxCell>
        <mxCell id="VJO6gOv40d7nDkX1chDL-7" value="" style="shape=actor;whiteSpace=wrap;html=1;" vertex="1" parent="VJO6gOv40d7nDkX1chDL-1">
          <mxGeometry x="40" y="100" width="40" height="60" as="geometry" />
        </mxCell>
        <mxCell id="VJO6gOv40d7nDkX1chDL-13" value="" style="endArrow=classic;html=1;entryX=0;entryY=0.5;entryDx=0;entryDy=0;exitX=0.9;exitY=0.5;exitDx=0;exitDy=0;exitPerimeter=0;" edge="1" parent="VJO6gOv40d7nDkX1chDL-1" source="VJO6gOv40d7nDkX1chDL-7" target="VJO6gOv40d7nDkX1chDL-8">
          <mxGeometry width="50" height="50" relative="1" as="geometry">
            <mxPoint x="80" y="140" as="sourcePoint" />
            <mxPoint x="130" y="90" as="targetPoint" />
          </mxGeometry>
        </mxCell>
      </root>
    </mxGraphModel>
  </diagram>
  <diagram id="2hIxJSdXa-hh4OUdAnu3" name="Page-5">
    <mxGraphModel dx="1182" dy="644" grid="1" gridSize="10" guides="1" tooltips="1" connect="1" arrows="1" fold="1" page="1" pageScale="1" pageWidth="827" pageHeight="1169" math="0" shadow="0">
      <root>
        <mxCell id="gXOE1dMkWCln-Hqg4Yji-0" />
        <mxCell id="gXOE1dMkWCln-Hqg4Yji-1" parent="gXOE1dMkWCln-Hqg4Yji-0" />
        <mxCell id="gzeDUuhlNB_anGm7az1D-0" value="新版本App" style="swimlane;childLayout=stackLayout;resizeParent=1;resizeParentMax=0;startSize=20;" vertex="1" parent="gXOE1dMkWCln-Hqg4Yji-1">
          <mxGeometry x="210" y="130" width="360" height="480" as="geometry" />
        </mxCell>
        <mxCell id="gzeDUuhlNB_anGm7az1D-1" value="APP" style="swimlane;startSize=20;" vertex="1" parent="gzeDUuhlNB_anGm7az1D-0">
          <mxGeometry y="20" width="120" height="460" as="geometry" />
        </mxCell>
        <mxCell id="gzeDUuhlNB_anGm7az1D-2" value="Native渲染" style="rounded=0;whiteSpace=wrap;html=1;" vertex="1" parent="gzeDUuhlNB_anGm7az1D-1">
          <mxGeometry x="15" y="50" width="90" height="40" as="geometry" />
        </mxCell>
        <mxCell id="gzeDUuhlNB_anGm7az1D-3" value="H5站点" style="swimlane;startSize=20;" vertex="1" parent="gzeDUuhlNB_anGm7az1D-0">
          <mxGeometry x="120" y="20" width="120" height="460" as="geometry" />
        </mxCell>
        <mxCell id="gzeDUuhlNB_anGm7az1D-4" value="Areas静态资源" style="swimlane;startSize=20;" vertex="1" parent="gzeDUuhlNB_anGm7az1D-0">
          <mxGeometry x="240" y="20" width="120" height="460" as="geometry" />
        </mxCell>
        <mxCell id="gzeDUuhlNB_anGm7az1D-5" value="" style="shape=actor;whiteSpace=wrap;html=1;" vertex="1" parent="gXOE1dMkWCln-Hqg4Yji-1">
          <mxGeometry x="100" y="190" width="40" height="60" as="geometry" />
        </mxCell>
        <mxCell id="gzeDUuhlNB_anGm7az1D-6" value="" style="endArrow=classic;html=1;entryX=0;entryY=0.5;entryDx=0;entryDy=0;exitX=0.9;exitY=0.5;exitDx=0;exitDy=0;exitPerimeter=0;" edge="1" parent="gXOE1dMkWCln-Hqg4Yji-1" source="gzeDUuhlNB_anGm7az1D-5" target="gzeDUuhlNB_anGm7az1D-2">
          <mxGeometry width="50" height="50" relative="1" as="geometry">
            <mxPoint x="140" y="230" as="sourcePoint" />
            <mxPoint x="190" y="180" as="targetPoint" />
          </mxGeometry>
        </mxCell>
      </root>
    </mxGraphModel>
  </diagram>
  <diagram id="qT20-4TQhEi3L9f0Sh8c" name="Page-4">
    <mxGraphModel dx="1182" dy="644" grid="1" gridSize="10" guides="1" tooltips="1" connect="1" arrows="1" fold="1" page="1" pageScale="1" pageWidth="827" pageHeight="1169" math="0" shadow="0">
      <root>
        <mxCell id="crhdayNaCYwgkHMaUOLL-0" />
        <mxCell id="crhdayNaCYwgkHMaUOLL-1" parent="crhdayNaCYwgkHMaUOLL-0" />
        <mxCell id="qffYcpr1nz60807uh5Ya-0" value="" style="rounded=1;whiteSpace=wrap;html=1;fillColor=#dae8fc;strokeColor=#6c8ebf;gradientColor=#7ea6e0;" vertex="1" parent="crhdayNaCYwgkHMaUOLL-1">
          <mxGeometry x="80" y="150" width="690" height="380" as="geometry" />
        </mxCell>
        <mxCell id="qffYcpr1nz60807uh5Ya-1" value="" style="rounded=1;whiteSpace=wrap;html=1;fillColor=#fff2cc;strokeColor=#d6b656;gradientColor=#ffd966;" vertex="1" parent="crhdayNaCYwgkHMaUOLL-1">
          <mxGeometry x="100" y="210" width="275" height="290" as="geometry" />
        </mxCell>
        <mxCell id="qffYcpr1nz60807uh5Ya-2" value="" style="rounded=1;whiteSpace=wrap;html=1;fillColor=#d5e8d4;strokeColor=#82b366;gradientColor=#97d077;" vertex="1" parent="crhdayNaCYwgkHMaUOLL-1">
          <mxGeometry x="470" y="210" width="275" height="300" as="geometry" />
        </mxCell>
        <mxCell id="qffYcpr1nz60807uh5Ya-3" value="APP" style="text;html=1;strokeColor=none;fillColor=none;align=center;verticalAlign=middle;whiteSpace=wrap;rounded=0;fontSize=42;fontStyle=1" vertex="1" parent="crhdayNaCYwgkHMaUOLL-1">
          <mxGeometry x="400" y="170" width="50" height="20" as="geometry" />
        </mxCell>
        <mxCell id="qffYcpr1nz60807uh5Ya-4" value="Native" style="text;html=1;strokeColor=none;fillColor=none;align=center;verticalAlign=middle;whiteSpace=wrap;rounded=0;fontSize=42;fontStyle=1" vertex="1" parent="crhdayNaCYwgkHMaUOLL-1">
          <mxGeometry x="212.5" y="240" width="50" height="20" as="geometry" />
        </mxCell>
        <mxCell id="qffYcpr1nz60807uh5Ya-5" value="WebView" style="text;html=1;strokeColor=none;fillColor=none;align=center;verticalAlign=middle;whiteSpace=wrap;rounded=0;fontSize=42;fontStyle=1" vertex="1" parent="crhdayNaCYwgkHMaUOLL-1">
          <mxGeometry x="577.5" y="240" width="50" height="20" as="geometry" />
        </mxCell>
        <mxCell id="qffYcpr1nz60807uh5Ya-8" value="" style="rounded=1;whiteSpace=wrap;html=1;fontSize=42;gradientColor=#ea6b66;fillColor=#f8cecc;strokeColor=#b85450;" vertex="1" parent="crhdayNaCYwgkHMaUOLL-1">
          <mxGeometry x="487.5" y="280" width="240" height="60" as="geometry" />
        </mxCell>
        <mxCell id="qffYcpr1nz60807uh5Ya-9" value="" style="rounded=1;whiteSpace=wrap;html=1;fontSize=42;gradientColor=#ea6b66;fillColor=#f8cecc;strokeColor=#b85450;" vertex="1" parent="crhdayNaCYwgkHMaUOLL-1">
          <mxGeometry x="487.5" y="350" width="240" height="60" as="geometry" />
        </mxCell>
        <mxCell id="qffYcpr1nz60807uh5Ya-10" value="LocalStorage" style="text;html=1;strokeColor=none;fillColor=none;align=center;verticalAlign=middle;whiteSpace=wrap;rounded=0;fontSize=30;fontStyle=1" vertex="1" parent="crhdayNaCYwgkHMaUOLL-1">
          <mxGeometry x="577.5" y="300" width="50" height="20" as="geometry" />
        </mxCell>
        <mxCell id="qffYcpr1nz60807uh5Ya-11" value="SessionStorage" style="text;html=1;strokeColor=none;fillColor=none;align=center;verticalAlign=middle;whiteSpace=wrap;rounded=0;fontSize=30;fontStyle=1" vertex="1" parent="crhdayNaCYwgkHMaUOLL-1">
          <mxGeometry x="582.5" y="370" width="50" height="20" as="geometry" />
        </mxCell>
        <mxCell id="qffYcpr1nz60807uh5Ya-14" value="" style="rounded=1;whiteSpace=wrap;html=1;fontSize=42;gradientColor=#ea6b66;fillColor=#f8cecc;strokeColor=#b85450;" vertex="1" parent="crhdayNaCYwgkHMaUOLL-1">
          <mxGeometry x="487.5" y="420" width="240" height="60" as="geometry" />
        </mxCell>
        <mxCell id="qffYcpr1nz60807uh5Ya-15" value="Cookie" style="text;html=1;strokeColor=none;fillColor=none;align=center;verticalAlign=middle;whiteSpace=wrap;rounded=0;fontSize=30;fontStyle=1" vertex="1" parent="crhdayNaCYwgkHMaUOLL-1">
          <mxGeometry x="582.5" y="440" width="50" height="20" as="geometry" />
        </mxCell>
        <mxCell id="qffYcpr1nz60807uh5Ya-16" value="" style="rounded=1;whiteSpace=wrap;html=1;fontSize=42;gradientColor=#ea6b66;fillColor=#f8cecc;strokeColor=#b85450;" vertex="1" parent="crhdayNaCYwgkHMaUOLL-1">
          <mxGeometry x="117.5" y="290" width="240" height="60" as="geometry" />
        </mxCell>
        <mxCell id="qffYcpr1nz60807uh5Ya-17" value="LocalStorage" style="text;html=1;strokeColor=none;fillColor=none;align=center;verticalAlign=middle;whiteSpace=wrap;rounded=0;fontSize=30;fontStyle=1" vertex="1" parent="crhdayNaCYwgkHMaUOLL-1">
          <mxGeometry x="207.5" y="310" width="50" height="20" as="geometry" />
        </mxCell>
      </root>
    </mxGraphModel>
  </diagram>
  <diagram id="Wt3Luoz1P4CgJSzRy76T" name="Page-3">
    <mxGraphModel dx="2009" dy="644" grid="1" gridSize="10" guides="1" tooltips="1" connect="1" arrows="1" fold="1" page="1" pageScale="1" pageWidth="827" pageHeight="1169" math="0" shadow="0">
      <root>
        <mxCell id="q3HA6dvSH8eLFMY_VZLw-0" />
        <mxCell id="q3HA6dvSH8eLFMY_VZLw-1" parent="q3HA6dvSH8eLFMY_VZLw-0" />
        <mxCell id="q3HA6dvSH8eLFMY_VZLw-2" value="" style="rounded=1;whiteSpace=wrap;html=1;fillColor=#dae8fc;strokeColor=#6c8ebf;gradientColor=#7ea6e0;" vertex="1" parent="q3HA6dvSH8eLFMY_VZLw-1">
          <mxGeometry x="-10" y="150" width="870" height="380" as="geometry" />
        </mxCell>
        <mxCell id="q3HA6dvSH8eLFMY_VZLw-3" value="" style="rounded=1;whiteSpace=wrap;html=1;fillColor=#fff2cc;strokeColor=#d6b656;gradientColor=#ffd966;" vertex="1" parent="q3HA6dvSH8eLFMY_VZLw-1">
          <mxGeometry x="10" y="210" width="275" height="290" as="geometry" />
        </mxCell>
        <mxCell id="q3HA6dvSH8eLFMY_VZLw-4" value="" style="rounded=1;whiteSpace=wrap;html=1;fillColor=#d5e8d4;strokeColor=#82b366;gradientColor=#97d077;" vertex="1" parent="q3HA6dvSH8eLFMY_VZLw-1">
          <mxGeometry x="565" y="210" width="275" height="300" as="geometry" />
        </mxCell>
        <mxCell id="q3HA6dvSH8eLFMY_VZLw-5" value="APP" style="text;html=1;strokeColor=none;fillColor=none;align=center;verticalAlign=middle;whiteSpace=wrap;rounded=0;fontSize=42;fontStyle=1" vertex="1" parent="q3HA6dvSH8eLFMY_VZLw-1">
          <mxGeometry x="400" y="170" width="50" height="20" as="geometry" />
        </mxCell>
        <mxCell id="q3HA6dvSH8eLFMY_VZLw-6" value="Native" style="text;html=1;strokeColor=none;fillColor=none;align=center;verticalAlign=middle;whiteSpace=wrap;rounded=0;fontSize=42;fontStyle=1" vertex="1" parent="q3HA6dvSH8eLFMY_VZLw-1">
          <mxGeometry x="122.5" y="240" width="50" height="20" as="geometry" />
        </mxCell>
        <mxCell id="q3HA6dvSH8eLFMY_VZLw-7" value="WebView" style="text;html=1;strokeColor=none;fillColor=none;align=center;verticalAlign=middle;whiteSpace=wrap;rounded=0;fontSize=42;fontStyle=1" vertex="1" parent="q3HA6dvSH8eLFMY_VZLw-1">
          <mxGeometry x="672.5" y="240" width="50" height="20" as="geometry" />
        </mxCell>
        <mxCell id="q3HA6dvSH8eLFMY_VZLw-15" value="" style="rounded=1;whiteSpace=wrap;html=1;fontSize=42;gradientColor=#ea6b66;fillColor=#f8cecc;strokeColor=#b85450;" vertex="1" parent="q3HA6dvSH8eLFMY_VZLw-1">
          <mxGeometry x="365" y="280" width="120" height="80" as="geometry" />
        </mxCell>
        <mxCell id="q3HA6dvSH8eLFMY_VZLw-16" value="Bridge" style="text;html=1;strokeColor=none;fillColor=none;align=center;verticalAlign=middle;whiteSpace=wrap;rounded=0;fontSize=30;fontStyle=1" vertex="1" parent="q3HA6dvSH8eLFMY_VZLw-1">
          <mxGeometry x="403" y="310" width="50" height="20" as="geometry" />
        </mxCell>
        <mxCell id="q3HA6dvSH8eLFMY_VZLw-17" value="" style="rounded=1;whiteSpace=wrap;html=1;fontSize=42;gradientColor=#ea6b66;fillColor=#f8cecc;strokeColor=#b85450;" vertex="1" parent="q3HA6dvSH8eLFMY_VZLw-1">
          <mxGeometry x="582.5" y="280" width="240" height="60" as="geometry" />
        </mxCell>
        <mxCell id="q3HA6dvSH8eLFMY_VZLw-18" value="" style="rounded=1;whiteSpace=wrap;html=1;fontSize=42;gradientColor=#ea6b66;fillColor=#f8cecc;strokeColor=#b85450;" vertex="1" parent="q3HA6dvSH8eLFMY_VZLw-1">
          <mxGeometry x="582.5" y="350" width="240" height="60" as="geometry" />
        </mxCell>
        <mxCell id="q3HA6dvSH8eLFMY_VZLw-20" value="LocalStorage" style="text;html=1;strokeColor=none;fillColor=none;align=center;verticalAlign=middle;whiteSpace=wrap;rounded=0;fontSize=30;fontStyle=1" vertex="1" parent="q3HA6dvSH8eLFMY_VZLw-1">
          <mxGeometry x="672.5" y="300" width="50" height="20" as="geometry" />
        </mxCell>
        <mxCell id="q3HA6dvSH8eLFMY_VZLw-21" value="SessionStorage" style="text;html=1;strokeColor=none;fillColor=none;align=center;verticalAlign=middle;whiteSpace=wrap;rounded=0;fontSize=30;fontStyle=1" vertex="1" parent="q3HA6dvSH8eLFMY_VZLw-1">
          <mxGeometry x="677.5" y="370" width="50" height="20" as="geometry" />
        </mxCell>
        <mxCell id="q3HA6dvSH8eLFMY_VZLw-23" value="" style="shape=doubleArrow;whiteSpace=wrap;html=1;fontSize=30;gradientColor=#b3b3b3;fillColor=#f5f5f5;strokeColor=#666666;" vertex="1" parent="q3HA6dvSH8eLFMY_VZLw-1">
          <mxGeometry x="485" y="290" width="80" height="60" as="geometry" />
        </mxCell>
        <mxCell id="q3HA6dvSH8eLFMY_VZLw-24" value="" style="shape=doubleArrow;whiteSpace=wrap;html=1;fontSize=30;gradientColor=#b3b3b3;fillColor=#f5f5f5;strokeColor=#666666;" vertex="1" parent="q3HA6dvSH8eLFMY_VZLw-1">
          <mxGeometry x="285" y="290" width="80" height="60" as="geometry" />
        </mxCell>
        <mxCell id="q3HA6dvSH8eLFMY_VZLw-25" value="" style="rounded=1;whiteSpace=wrap;html=1;fontSize=42;gradientColor=#ea6b66;fillColor=#f8cecc;strokeColor=#b85450;" vertex="1" parent="q3HA6dvSH8eLFMY_VZLw-1">
          <mxGeometry x="582.5" y="420" width="240" height="60" as="geometry" />
        </mxCell>
        <mxCell id="q3HA6dvSH8eLFMY_VZLw-26" value="Cookie" style="text;html=1;strokeColor=none;fillColor=none;align=center;verticalAlign=middle;whiteSpace=wrap;rounded=0;fontSize=30;fontStyle=1" vertex="1" parent="q3HA6dvSH8eLFMY_VZLw-1">
          <mxGeometry x="677.5" y="440" width="50" height="20" as="geometry" />
        </mxCell>
        <mxCell id="q3HA6dvSH8eLFMY_VZLw-27" value="" style="rounded=1;whiteSpace=wrap;html=1;fontSize=42;gradientColor=#ea6b66;fillColor=#f8cecc;strokeColor=#b85450;" vertex="1" parent="q3HA6dvSH8eLFMY_VZLw-1">
          <mxGeometry x="27.5" y="290" width="240" height="60" as="geometry" />
        </mxCell>
        <mxCell id="q3HA6dvSH8eLFMY_VZLw-28" value="LocalStorage" style="text;html=1;strokeColor=none;fillColor=none;align=center;verticalAlign=middle;whiteSpace=wrap;rounded=0;fontSize=30;fontStyle=1" vertex="1" parent="q3HA6dvSH8eLFMY_VZLw-1">
          <mxGeometry x="117.5" y="310" width="50" height="20" as="geometry" />
        </mxCell>
      </root>
    </mxGraphModel>
  </diagram>
</mxfile>
